HIERARCHY
ROOT mixamorig:Hips
{
	OFFSET -0.000008 104.274872 1.554316
	CHANNELS 6 Xposition Yposition Zposition Xrotation Yrotation Zrotation
	JOINT mixamorig:Spine
	{
		OFFSET -0.000005 10.181595 0.131519
		CHANNELS 6 Xposition Yposition Zposition Xrotation Yrotation Zrotation
		JOINT mixamorig:Spine1
		{
			OFFSET -0.000000 9.893959 -1.470707
			CHANNELS 6 Xposition Yposition Zposition Xrotation Yrotation Zrotation
			JOINT mixamorig:Spine2
			{
				OFFSET -0.000000 9.220757 -1.370641
				CHANNELS 6 Xposition Yposition Zposition Xrotation Yrotation Zrotation
				JOINT mixamorig:Neck
				{
					OFFSET 0.000001 16.740417 -2.049036
					CHANNELS 6 Xposition Yposition Zposition Xrotation Yrotation Zrotation
					JOINT mixamorig:Head
					{
						OFFSET 0.000000 9.617874 1.685006
						CHANNELS 6 Xposition Yposition Zposition Xrotation Yrotation Zrotation
						JOINT mixamorig:HeadTop_End
						{
							OFFSET 0.000002 22.037354 7.501101
							CHANNELS 6 Xposition Yposition Zposition Xrotation Yrotation Zrotation
							End Site
							{
								OFFSET 0.000168 2310.654297 -282.823242
							}
						}
					}
				}
				JOINT mixamorig:RightShoulder
				{
					OFFSET -4.569970 11.014908 -2.160885
					CHANNELS 6 Xposition Yposition Zposition Xrotation Yrotation Zrotation
					JOINT mixamorig:RightArm
					{
						OFFSET -10.592851 -0.524811 -2.232101
						CHANNELS 6 Xposition Yposition Zposition Xrotation Yrotation Zrotation
						JOINT mixamorig:RightForeArm
						{
							OFFSET -27.841511 0.000031 -0.000004
							CHANNELS 6 Xposition Yposition Zposition Xrotation Yrotation Zrotation
							JOINT mixamorig:RightHand
							{
								OFFSET -28.328831 -0.000015 0.000015
								CHANNELS 6 Xposition Yposition Zposition Xrotation Yrotation Zrotation
								JOINT mixamorig:RightHandThumb1
								{
									OFFSET -2.464806 -1.573990 2.681852
									CHANNELS 6 Xposition Yposition Zposition Xrotation Yrotation Zrotation
									JOINT mixamorig:RightHandThumb2
									{
										OFFSET -3.215179 -1.872803 1.924282
										CHANNELS 6 Xposition Yposition Zposition Xrotation Yrotation Zrotation
										JOINT mixamorig:RightHandThumb3
										{
											OFFSET -2.654831 -1.527969 1.512609
											CHANNELS 6 Xposition Yposition Zposition Xrotation Yrotation Zrotation
											JOINT mixamorig:RightHandThumb4
											{
												OFFSET -2.018814 -1.152008 1.108052
												CHANNELS 6 Xposition Yposition Zposition Xrotation Yrotation Zrotation
												End Site
												{
													OFFSET -188.809540 -114.533607 132.431396
												}
											}
										}
									}
								}
								JOINT mixamorig:RightHandIndex1
								{
									OFFSET -9.108284 -0.517868 2.259835
									CHANNELS 6 Xposition Yposition Zposition Xrotation Yrotation Zrotation
									JOINT mixamorig:RightHandIndex2
									{
										OFFSET -3.699989 0.000000 0.001215
										CHANNELS 6 Xposition Yposition Zposition Xrotation Yrotation Zrotation
										JOINT mixamorig:RightHandIndex3
										{
											OFFSET -2.850006 0.000031 -0.000522
											CHANNELS 6 Xposition Yposition Zposition Xrotation Yrotation Zrotation
											JOINT mixamorig:RightHandIndex4
											{
												OFFSET -2.772186 -0.000015 -0.000020
												CHANNELS 6 Xposition Yposition Zposition Xrotation Yrotation Zrotation
												End Site
												{
													OFFSET -277.218445 0.000000 -0.050231
												}
											}
										}
									}
								}
								JOINT mixamorig:RightHandMiddle1
								{
									OFFSET -9.532516 -0.000031 -0.000023
									CHANNELS 6 Xposition Yposition Zposition Xrotation Yrotation Zrotation
									JOINT mixamorig:RightHandMiddle2
									{
										OFFSET -3.700005 -0.000015 0.003713
										CHANNELS 6 Xposition Yposition Zposition Xrotation Yrotation Zrotation
										JOINT mixamorig:RightHandMiddle3
										{
											OFFSET -2.949974 0.000015 -0.002054
											CHANNELS 6 Xposition Yposition Zposition Xrotation Yrotation Zrotation
											JOINT mixamorig:RightHandMiddle4
											{
												OFFSET -2.946640 0.000000 -0.000156
												CHANNELS 6 Xposition Yposition Zposition Xrotation Yrotation Zrotation
												End Site
												{
													OFFSET -294.664337 0.000000 -0.113670
												}
											}
										}
									}
								}
								JOINT mixamorig:RightHandRing1
								{
									OFFSET -9.103600 -0.043076 -1.865134
									CHANNELS 6 Xposition Yposition Zposition Xrotation Yrotation Zrotation
									JOINT mixamorig:RightHandRing2
									{
										OFFSET -3.379288 0.000000 -0.001055
										CHANNELS 6 Xposition Yposition Zposition Xrotation Yrotation Zrotation
										JOINT mixamorig:RightHandRing3
										{
											OFFSET -2.889687 -0.000015 0.000379
											CHANNELS 6 Xposition Yposition Zposition Xrotation Yrotation Zrotation
											JOINT mixamorig:RightHandRing4
											{
												OFFSET -2.638809 -0.000015 0.000941
												CHANNELS 6 Xposition Yposition Zposition Xrotation Yrotation Zrotation
												End Site
												{
													OFFSET -263.880371 0.000000 0.516020
												}
											}
										}
									}
								}
								JOINT mixamorig:RightHandPinky1
								{
									OFFSET -8.076683 -0.486710 -3.806280
									CHANNELS 6 Xposition Yposition Zposition Xrotation Yrotation Zrotation
									JOINT mixamorig:RightHandPinky2
									{
										OFFSET -3.600014 -0.000015 -0.003747
										CHANNELS 6 Xposition Yposition Zposition Xrotation Yrotation Zrotation
										JOINT mixamorig:RightHandPinky3
										{
											OFFSET -2.099983 0.000000 -0.005739
											CHANNELS 6 Xposition Yposition Zposition Xrotation Yrotation Zrotation
											JOINT mixamorig:RightHandPinky4
											{
												OFFSET -2.115768 -0.000031 -0.003680
												CHANNELS 6 Xposition Yposition Zposition Xrotation Yrotation Zrotation
												End Site
												{
													OFFSET -211.577087 0.000000 -0.350686
												}
											}
										}
									}
								}
							}
						}
					}
				}
				JOINT mixamorig:LeftShoulder
				{
					OFFSET 4.570447 11.014725 -2.160855
					CHANNELS 6 Xposition Yposition Zposition Xrotation Yrotation Zrotation
					JOINT mixamorig:LeftArm
					{
						OFFSET 10.592371 -0.524597 -2.232119
						CHANNELS 6 Xposition Yposition Zposition Xrotation Yrotation Zrotation
						JOINT mixamorig:LeftForeArm
						{
							OFFSET 27.841532 -0.000031 0.000026
							CHANNELS 6 Xposition Yposition Zposition Xrotation Yrotation Zrotation
							JOINT mixamorig:LeftHand
							{
								OFFSET 28.328846 -0.000061 0.000022
								CHANNELS 6 Xposition Yposition Zposition Xrotation Yrotation Zrotation
								JOINT mixamorig:LeftHandThumb1
								{
									OFFSET 2.466141 -1.576172 2.681732
									CHANNELS 6 Xposition Yposition Zposition Xrotation Yrotation Zrotation
									JOINT mixamorig:LeftHandThumb2
									{
										OFFSET 3.217812 -1.872070 1.916482
										CHANNELS 6 Xposition Yposition Zposition Xrotation Yrotation Zrotation
										JOINT mixamorig:LeftHandThumb3
										{
											OFFSET 2.656029 -1.528778 1.514513
											CHANNELS 6 Xposition Yposition Zposition Xrotation Yrotation Zrotation
											JOINT mixamorig:LeftHandThumb4
											{
												OFFSET 2.020889 -1.154053 1.115139
												CHANNELS 6 Xposition Yposition Zposition Xrotation Yrotation Zrotation
												End Site
												{
													OFFSET 190.885437 -115.081749 130.048782
												}
											}
										}
									}
								}
								JOINT mixamorig:LeftHandIndex1
								{
									OFFSET 9.109314 -0.518021 2.259871
									CHANNELS 6 Xposition Yposition Zposition Xrotation Yrotation Zrotation
									JOINT mixamorig:LeftHandIndex2
									{
										OFFSET 3.699989 0.000000 -0.000322
										CHANNELS 6 Xposition Yposition Zposition Xrotation Yrotation Zrotation
										JOINT mixamorig:LeftHandIndex3
										{
											OFFSET 2.850006 0.000000 0.000352
											CHANNELS 6 Xposition Yposition Zposition Xrotation Yrotation Zrotation
											JOINT mixamorig:LeftHandIndex4
											{
												OFFSET 2.774864 -0.000031 -0.000027
												CHANNELS 6 Xposition Yposition Zposition Xrotation Yrotation Zrotation
												End Site
												{
													OFFSET 277.486267 0.000000 -0.009857
												}
											}
										}
									}
								}
								JOINT mixamorig:LeftHandMiddle1
								{
									OFFSET 9.533394 0.000061 0.000044
									CHANNELS 6 Xposition Yposition Zposition Xrotation Yrotation Zrotation
									JOINT mixamorig:LeftHandMiddle2
									{
										OFFSET 3.699989 -0.000015 -0.000231
										CHANNELS 6 Xposition Yposition Zposition Xrotation Yrotation Zrotation
										JOINT mixamorig:LeftHandMiddle3
										{
											OFFSET 2.949997 -0.000015 -0.000059
											CHANNELS 6 Xposition Yposition Zposition Xrotation Yrotation Zrotation
											JOINT mixamorig:LeftHandMiddle4
											{
												OFFSET 2.952896 0.000031 0.000063
												CHANNELS 6 Xposition Yposition Zposition Xrotation Yrotation Zrotation
												End Site
												{
													OFFSET 295.289337 0.000000 0.022810
												}
											}
										}
									}
								}
								JOINT mixamorig:LeftHandRing1
								{
									OFFSET 9.104523 -0.042999 -1.865074
									CHANNELS 6 Xposition Yposition Zposition Xrotation Yrotation Zrotation
									JOINT mixamorig:LeftHandRing2
									{
										OFFSET 3.150009 -0.000031 0.000043
										CHANNELS 6 Xposition Yposition Zposition Xrotation Yrotation Zrotation
										JOINT mixamorig:LeftHandRing3
										{
											OFFSET 2.949982 -0.000015 0.000040
											CHANNELS 6 Xposition Yposition Zposition Xrotation Yrotation Zrotation
											JOINT mixamorig:LeftHandRing4
											{
												OFFSET 2.644348 0.000000 0.000057
												CHANNELS 6 Xposition Yposition Zposition Xrotation Yrotation Zrotation
												End Site
												{
													OFFSET 264.434631 0.000000 0.012105
												}
											}
										}
									}
								}
								JOINT mixamorig:LeftHandPinky1
								{
									OFFSET 8.077789 -0.486847 -3.806259
									CHANNELS 6 Xposition Yposition Zposition Xrotation Yrotation Zrotation
									JOINT mixamorig:LeftHandPinky2
									{
										OFFSET 3.599953 0.000031 0.014727
										CHANNELS 6 Xposition Yposition Zposition Xrotation Yrotation Zrotation
										JOINT mixamorig:LeftHandPinky3
										{
											OFFSET 2.100021 0.000015 0.007705
											CHANNELS 6 Xposition Yposition Zposition Xrotation Yrotation Zrotation
											JOINT mixamorig:LeftHandPinky4
											{
												OFFSET 2.125504 0.000031 0.007517
												CHANNELS 6 Xposition Yposition Zposition Xrotation Yrotation Zrotation
												End Site
												{
													OFFSET 212.550781 0.000000 0.625752
												}
											}
										}
									}
								}
							}
						}
					}
				}
			}
		}
	}
	JOINT mixamorig:RightUpLeg
	{
		OFFSET -8.207787 -6.751648 -1.599560
		CHANNELS 6 Xposition Yposition Zposition Xrotation Yrotation Zrotation
		JOINT mixamorig:RightLeg
		{
			OFFSET -0.000002 -44.370117 0.345942
			CHANNELS 6 Xposition Yposition Zposition Xrotation Yrotation Zrotation
			JOINT mixamorig:RightFoot
			{
				OFFSET 0.000003 -44.423679 -3.043532
				CHANNELS 6 Xposition Yposition Zposition Xrotation Yrotation Zrotation
				JOINT mixamorig:RightToeBase
				{
					OFFSET -0.000002 -8.728671 10.710558
					CHANNELS 6 Xposition Yposition Zposition Xrotation Yrotation Zrotation
					JOINT mixamorig:RightToe_End
					{
						OFFSET -0.000001 -0.000679 9.278119
						CHANNELS 6 Xposition Yposition Zposition Xrotation Yrotation Zrotation
						End Site
						{
							OFFSET 0.000000 -0.067690 927.812134
						}
					}
				}
			}
		}
	}
	JOINT mixamorig:LeftUpLeg
	{
		OFFSET 8.207793 -6.751686 -1.599556
		CHANNELS 6 Xposition Yposition Zposition Xrotation Yrotation Zrotation
		JOINT mixamorig:LeftLeg
		{
			OFFSET -0.000004 -44.370014 0.346954
			CHANNELS 6 Xposition Yposition Zposition Xrotation Yrotation Zrotation
			JOINT mixamorig:LeftFoot
			{
				OFFSET -0.000001 -44.423672 -3.044401
				CHANNELS 6 Xposition Yposition Zposition Xrotation Yrotation Zrotation
				JOINT mixamorig:LeftToeBase
				{
					OFFSET -0.000002 -8.728669 10.710558
					CHANNELS 6 Xposition Yposition Zposition Xrotation Yrotation Zrotation
					JOINT mixamorig:LeftToe_End
					{
						OFFSET -0.000003 -0.000679 9.278133
						CHANNELS 6 Xposition Yposition Zposition Xrotation Yrotation Zrotation
						End Site
						{
							OFFSET 0.000000 -0.068021 927.813477
						}
					}
				}
			}
		}
	}
}
MOTION
Frames: 3
Frame Time: 0.033333
0.000006 104.270477 1.554256 0.000010 0.000003 -0.000113 -0.000005 10.181587 0.131522 0.000001 -0.000003 0.000084 -0.000000 9.893967 -1.470711 0.000001 0.000000 -0.000000 -0.000000 9.220802 -1.370642 0.000000 -0.000000 -0.000000 0.000001 16.740433 -2.049030 0.000000 -0.000000 -0.000000 0.000000 9.617859 1.685014 0.000000 0.000000 0.000000 0.000002 22.037384 7.501101 0.000000 -0.000000 0.000000 -4.569968 11.014880 -2.160881 0.000008 0.000001 -0.000038 -10.592878 -0.524740 -2.231939 73.604366 23.658718 -17.811426 -27.841503 0.000006 0.000547 -45.162464 110.568373 61.948204 -28.328838 0.000005 0.000025 -0.000323 -0.000046 0.000008 -2.464415 -1.573938 2.682363 -29.365992 -146.772542 24.230354 -3.215264 -1.872587 1.924645 154.695206 32.634063 10.008492 -2.654963 -1.527880 1.513086 146.011536 27.029140 -38.169494 -2.018838 -1.152003 1.108055 -0.000001 -0.000006 0.000004 -9.108377 -0.517549 2.260152 106.991430 14.458851 -19.513992 -3.700057 0.000327 0.001537 107.512874 9.815860 -13.331488 -2.850074 0.000381 -0.000229 106.746513 7.447854 -10.006190 -2.772175 -0.000002 -0.000024 -0.000000 -0.000003 -0.000001 -9.532580 0.000262 0.000325 108.147829 14.503818 -20.114315 -3.700047 0.000340 0.004031 110.751920 8.677679 -12.409579 -2.950043 0.000337 -0.001741 110.850979 8.142535 -11.782729 -2.946621 0.000014 -0.000153 0.000001 -0.000000 -0.000002 -9.103685 -0.042749 -1.864801 108.843040 15.703628 -21.761510 -3.379326 0.000327 -0.000716 113.199177 7.642235 -11.593391 -2.889759 0.000349 0.000737 118.008320 6.127960 -10.258700 -2.638806 0.000014 0.000946 -0.000002 0.000002 0.000002 -8.076772 -0.486424 -3.805951 98.663271 21.456954 -24.691796 -3.600070 0.000272 -0.003427 103.750765 11.077528 -13.621323 -2.100023 0.000302 -0.005395 109.857937 6.410245 -8.804274 -2.115765 -0.000045 -0.003677 -0.000000 -0.000001 -0.000004 4.570446 11.014691 -2.160851 -0.000018 0.000010 -0.000021 10.592501 -0.524560 -2.232374 50.691960 -65.340779 33.792590 27.841740 -0.000071 -0.000093 230.936291 -72.412279 246.098191 28.328831 -0.000013 0.000025 0.000022 -0.000088 0.000000 2.466180 -1.576128 2.681882 123.153543 182.475662 -164.899577 3.217850 -1.871936 1.916548 103.513347 161.265602 -154.981937 2.656073 -1.528727 1.514614 92.988866 154.413966 -147.675752 2.020891 -1.154051 1.115150 -0.000000 0.000002 0.000002 9.109182 -0.517717 2.260037 214.003651 -12.441699 320.775873 3.699843 0.000302 -0.000154 209.842659 -12.827037 314.233508 2.849863 0.000373 0.000521 27.716744 -168.943213 137.159132 2.774886 -0.000031 -0.000017 0.000000 0.000002 0.000000 9.533278 0.000364 0.000206 211.459078 -11.657404 320.167084 3.699862 0.000358 -0.000049 211.740359 -12.159925 -41.074555 2.949894 0.000333 0.000122 212.148531 -10.128348 -34.194724 2.952864 -0.000030 0.000045 0.000001 0.000001 0.000001 9.104405 -0.042703 -1.864918 214.289576 -10.787781 325.961708 3.149881 0.000373 0.000242 214.496258 -11.282362 -35.299750 2.949883 0.000397 0.000229 215.389387 -8.516221 -26.275642 2.644322 0.000030 0.000073 -0.000001 0.000001 0.000001 8.077661 -0.486566 -3.806071 220.195231 -11.991234 327.190131 3.599850 0.000391 0.014933 218.095986 -9.601128 -28.165142 2.099957 0.000373 0.007870 218.502082 -4.523586 -13.891865 2.125500 -0.000001 0.007509 -0.000000 -0.000000 0.000005 -8.207786 -6.751667 -1.599560 -0.077001 -0.000003 0.000080 -0.000002 -44.370110 0.345938 0.153719 -0.000000 -0.000000 0.000000 -44.423679 -3.043532 -0.076700 0.000000 -0.000002 -0.000006 -8.728667 10.710559 -0.000009 -0.000000 -0.000000 -0.000001 -0.000679 9.278123 0.000000 -0.000000 -0.000000 8.207792 -6.751710 -1.599556 -0.074518 -0.000003 0.000081 -0.000002 -44.370014 0.346960 0.148822 0.000002 0.000000 -0.000001 -44.423664 -3.044403 -0.074314 0.000000 -0.000002 -0.000004 -8.728671 10.710558 0.000007 -0.000000 -0.000000 0.000000 -0.000680 9.278137 -0.000000 0.000000 -0.000001 
0.000006 104.270477 1.554256 0.000010 0.000003 -0.000113 -0.000005 10.181587 0.131522 0.000001 -0.000003 0.000084 -0.000000 9.893967 -1.470711 0.000001 0.000000 -0.000000 -0.000000 9.220802 -1.370642 0.000000 -0.000000 -0.000000 0.000001 16.740433 -2.049030 0.000000 -0.000000 -0.000000 0.000000 9.617859 1.685014 0.000000 0.000000 0.000000 0.000002 22.037384 7.501101 0.000000 -0.000000 0.000000 -4.569968 11.014880 -2.160881 0.000008 0.000001 -0.000038 -10.592880 -0.524743 -2.231934 72.805937 23.758256 -17.632903 -27.841507 0.000004 0.000551 -45.378052 111.486166 63.089754 -28.328819 0.000021 0.000021 -0.000324 -0.000044 0.000006 -2.464399 -1.573949 2.682357 -28.299359 -146.275277 25.870873 -3.215265 -1.872590 1.924640 153.023422 32.725639 12.525777 -2.654947 -1.527873 1.513071 145.109063 27.403388 -35.814551 -2.018826 -1.151995 1.108067 -0.000003 -0.000001 0.000002 -9.108370 -0.517547 2.260156 107.133505 14.471415 -19.580510 -3.700050 0.000329 0.001563 107.812467 9.898081 -13.516190 -2.850064 0.000365 -0.000221 107.136865 7.309967 -9.891183 -2.772171 0.000001 -0.000020 0.000001 -0.000002 0.000000 -9.532585 0.000273 0.000300 108.466375 14.129027 -19.716533 -3.700044 0.000334 0.004058 111.135326 8.840310 -12.733476 -2.950043 0.000346 -0.001734 110.857249 8.281505 -11.984610 -2.946634 0.000015 -0.000156 0.000001 0.000002 0.000000 -9.103699 -0.042753 -1.864807 109.451063 16.040897 -22.469050 -3.379336 0.000313 -0.000708 114.006649 8.841821 -13.606667 -2.889743 0.000342 0.000720 118.123860 6.869125 -11.512321 -2.638827 -0.000029 0.000941 0.000000 -0.000000 0.000001 -8.076779 -0.486423 -3.805964 99.605024 21.893311 -25.601849 -3.600054 0.000268 -0.003439 103.815098 12.000842 -14.802628 -2.100026 0.000313 -0.005411 108.798350 6.940013 -9.369593 -2.115775 -0.000041 -0.003678 0.000000 0.000001 -0.000001 4.570446 11.014691 -2.160851 -0.000018 0.000010 -0.000021 10.592498 -0.524557 -2.232374 50.544783 -65.252595 33.633023 27.841736 -0.000079 -0.000091 230.932138 -72.364898 246.138789 28.328831 -0.000013 0.000022 0.000021 -0.000089 0.000000 2.466187 -1.576102 2.681904 123.496486 183.986390 -165.075441 3.217836 -1.871935 1.916571 105.292434 161.570980 -155.809811 2.656066 -1.528730 1.514608 90.844562 151.712572 -145.647350 2.020894 -1.154069 1.115161 0.000001 0.000002 0.000004 9.109197 -0.517703 2.260045 214.970246 -12.211203 322.505960 3.699850 0.000288 -0.000140 211.199162 -12.983766 315.627659 2.849892 0.000359 0.000546 30.698514 -169.189168 141.962039 2.774879 -0.000046 -0.000021 0.000001 0.000001 0.000000 9.533313 0.000368 0.000226 216.791639 -10.832590 328.188431 3.699892 0.000345 -0.000042 215.734394 -11.199477 -33.830439 2.949916 0.000328 0.000123 216.813413 -9.237062 -27.294279 2.952869 -0.000015 0.000067 0.000000 -0.000001 -0.000001 9.104442 -0.042691 -1.864888 220.374537 -9.742654 333.895956 3.149914 0.000388 0.000240 218.505388 -8.806405 -24.868985 2.949917 0.000376 0.000263 220.139797 -6.630120 -18.020708 2.644329 0.000032 0.000065 -0.000000 -0.000000 -0.000002 8.077710 -0.486543 -3.806056 223.971001 -10.058260 334.594192 3.599885 0.000369 0.014934 220.782614 -5.964564 -16.879762 2.099986 0.000362 0.007885 221.211386 -1.400538 -4.750050 2.125503 0.000000 0.007501 0.000001 -0.000000 0.000000 -8.207786 -6.751667 -1.599560 -0.077001 -0.000003 0.000080 -0.000002 -44.370110 0.345938 0.153719 -0.000000 -0.000000 0.000000 -44.423679 -3.043532 -0.076700 0.000000 -0.000002 -0.000006 -8.728667 10.710559 -0.000009 -0.000000 -0.000000 -0.000001 -0.000679 9.278123 0.000000 -0.000000 -0.000000 8.207792 -6.751710 -1.599556 -0.074518 -0.000003 0.000081 -0.000002 -44.370014 0.346960 0.148822 0.000002 0.000000 -0.000001 -44.423664 -3.044403 -0.074314 0.000000 -0.000002 -0.000004 -8.728671 10.710558 0.000007 -0.000000 -0.000000 0.000000 -0.000680 9.278137 -0.000000 0.000000 -0.000001 
0.000006 104.270477 1.554256 0.000010 0.000003 -0.000113 -0.000005 10.181587 0.131522 0.000001 -0.000003 0.000084 -0.000000 9.893967 -1.470711 0.000001 0.000000 -0.000000 -0.000000 9.220802 -1.370642 0.000000 -0.000000 -0.000000 0.000001 16.740433 -2.049030 0.000000 -0.000000 -0.000000 0.000000 9.617859 1.685014 0.000000 0.000000 0.000000 0.000002 22.037384 7.501101 0.000000 -0.000000 0.000000 -4.569968 11.014880 -2.160881 0.000008 0.000001 -0.000038 -10.592876 -0.524749 -2.231913 72.516262 27.111932 -20.057400 -27.841501 0.000005 0.000569 -45.058526 113.094498 64.244192 -28.328812 0.000022 0.000032 -0.000323 -0.000045 0.000006 -2.464424 -1.573944 2.682358 -25.691990 -145.826342 30.181182 -3.215271 -1.872559 1.924642 154.671054 32.405436 8.644605 -2.654953 -1.527886 1.513089 145.417514 27.227528 -37.254946 -2.018826 -1.151999 1.108062 -0.000001 0.000002 0.000002 -9.108402 -0.517558 2.260151 108.102189 15.344088 -21.109941 -3.700048 0.000306 0.001544 108.455939 10.374665 -14.331892 -2.850076 0.000379 -0.000205 107.432633 7.545173 -10.263766 -2.772165 0.000003 -0.000017 0.000001 -0.000002 0.000001 -9.532604 0.000255 0.000322 109.103195 15.636999 -22.031537 -3.700078 0.000314 0.004050 111.931637 9.472844 -13.851913 -2.950059 0.000348 -0.001697 111.696262 8.548070 -12.563452 -2.946627 0.000001 -0.000153 -0.000000 0.000003 -0.000002 -9.103704 -0.042772 -1.864788 110.013317 17.638443 -24.929893 -3.379327 0.000295 -0.000703 114.324553 9.756622 -15.093682 -2.889745 0.000343 0.000744 118.376426 7.149554 -12.037051 -2.638818 -0.000018 0.000937 0.000002 0.000001 0.000001 -8.076796 -0.486419 -3.805946 100.583019 23.580159 -28.028812 -3.600049 0.000271 -0.003445 103.659261 13.360342 -16.471618 -2.100023 0.000299 -0.005404 108.356109 7.769603 -10.435632 -2.115774 -0.000039 -0.003681 -0.000000 -0.000001 -0.000004 4.570446 11.014691 -2.160851 -0.000018 0.000010 -0.000021 10.592503 -0.524546 -2.232370 50.459781 -65.442030 33.687504 27.841757 -0.000073 -0.000091 231.722446 -72.118793 247.306014 28.328831 -0.000029 0.000024 0.000022 -0.000088 0.000000 2.466171 -1.576145 2.681877 131.528762 183.817111 -166.863543 3.217854 -1.871968 1.916574 113.132726 162.999227 -159.315993 2.656054 -1.528754 1.514631 91.398709 146.760411 -144.279564 2.020898 -1.154081 1.115172 0.000001 -0.000000 0.000003 9.109242 -0.517695 2.260052 220.057890 -8.284206 337.548277 3.699935 0.000324 -0.000137 217.281349 -7.454888 338.106631 2.849940 0.000360 0.000530 35.192775 -174.080007 161.482816 2.774888 -0.000031 -0.000016 -0.000000 -0.000000 -0.000000 9.533339 0.000347 0.000242 224.140089 -8.053397 340.314285 3.699948 0.000335 -0.000031 225.572134 -6.991882 -16.544752 2.949971 0.000296 0.000146 226.504386 -5.127588 -11.903503 2.952872 -0.000017 0.000068 -0.000000 0.000000 0.000001 9.104496 -0.042734 -1.864876 228.320192 -6.391055 345.807942 3.149997 0.000314 0.000239 232.357052 -0.345226 -0.705341 2.949994 0.000266 0.000261 237.647580 1.262318 2.290925 2.644323 0.000028 0.000048 0.000000 0.000000 0.000001 8.077752 -0.486609 -3.806031 235.278789 -4.448341 350.715379 3.599982 0.000309 0.014949 237.883959 4.739519 7.732865 2.100037 0.000232 0.007914 242.095782 8.158539 12.748737 2.125494 -0.000000 0.007520 -0.000000 0.000001 0.000004 -8.207786 -6.751667 -1.599560 -0.077001 -0.000003 0.000080 -0.000002 -44.370110 0.345938 0.153719 -0.000000 -0.000000 0.000000 -44.423679 -3.043532 -0.076700 0.000000 -0.000002 -0.000006 -8.728667 10.710559 -0.000009 -0.000000 -0.000000 -0.000001 -0.000679 9.278123 0.000000 -0.000000 -0.000000 8.207792 -6.751710 -1.599556 -0.074518 -0.000003 0.000081 -0.000002 -44.370014 0.346960 0.148822 0.000002 0.000000 -0.000001 -44.423664 -3.044403 -0.074314 0.000000 -0.000002 -0.000004 -8.728671 10.710558 0.000007 -0.000000 -0.000000 0.000000 -0.000680 9.278137 -0.000000 0.000000 -0.000001 
